<?xml version="1.0" standalone="no"?>
<!DOCTYPE svg PUBLIC "-//W3C//DTD SVG 20010904//EN"
 "http://www.w3.org/TR/2001/REC-SVG-20010904/DTD/svg10.dtd">
<svg version="1.0" xmlns="http://www.w3.org/2000/svg"
 width="512.000000pt" height="512.000000pt" viewBox="0 0 512.000000 512.000000"
 preserveAspectRatio="xMidYMid meet">
<metadata>
Created by potrace 1.14, written by Peter Selinger 2001-2017
</metadata>
<g transform="translate(0.000000,512.000000) scale(0.100000,-0.100000)"
fill="#000000" stroke="none">
<path d="M2240 4707 c-49 -16 -133 -102 -148 -153 -9 -31 -12 -289 -12 -1058
l0 -1016 80 0 80 0 0 1015 0 1016 25 24 24 25 616 0 615 0 0 -1280 0 -1280
-280 0 -280 0 0 -80 0 -80 1000 0 1000 0 0 -160 0 -160 -880 0 -880 0 0 -80 0
-80 880 0 880 0 0 -125 c0 -134 -8 -166 -47 -184 -17 -8 -271 -11 -868 -11
l-845 0 0 -80 0 -80 858 0 c975 0 919 -5 995 80 24 26 49 66 55 88 17 57 17
3447 0 3504 -6 22 -31 62 -55 88 -78 86 37 80 -1457 79 -933 -1 -1331 -4
-1356 -12z m2673 -158 c14 -6 30 -22 36 -36 8 -17 11 -378 11 -1268 l0 -1245
-640 0 -640 0 0 1280 0 1280 605 0 c421 0 611 -3 628 -11z"/>
<path d="M3866 3656 l-26 -25 0 -351 0 -351 25 -24 c23 -24 30 -25 137 -25
148 0 181 10 244 74 71 70 76 93 72 350 -3 231 -6 242 -69 305 -57 58 -82 65
-226 69 -130 4 -132 4 -157 -22z m267 -165 c21 -21 22 -29 22 -211 0 -182 -1
-190 -22 -211 -16 -16 -38 -24 -77 -27 l-56 -4 0 242 0 242 56 -4 c39 -3 61
-11 77 -27z"/>
<path d="M265 4375 l-25 -24 0 -831 0 -831 25 -24 24 -25 751 0 751 0 24 25
25 24 0 831 0 831 -25 24 -24 25 -751 0 -751 0 -24 -25z m1415 -855 l0 -720
-640 0 -640 0 0 720 0 720 640 0 640 0 0 -720z"/>
<path d="M502 4137 l-22 -23 0 -595 0 -596 23 -21 23 -22 515 0 516 0 21 23
22 23 0 595 0 596 -23 21 -23 22 -515 0 -516 0 -21 -23z m458 -337 l0 -200
-160 0 -160 0 0 200 0 200 160 0 160 0 0 -200z m480 0 l0 -200 -160 0 -160 0
0 200 0 200 160 0 160 0 0 -200z m-480 -560 l0 -200 -160 0 -160 0 0 200 0
200 160 0 160 0 0 -200z m480 0 l0 -200 -160 0 -160 0 0 200 0 200 160 0 160
0 0 -200z"/>
<path d="M3040 3667 c-49 -16 -133 -102 -148 -153 -8 -26 -12 -112 -12 -234 0
-231 6 -257 75 -325 63 -64 100 -75 244 -75 105 0 113 1 136 25 l25 24 0 351
0 351 -25 24 c-23 24 -29 25 -142 24 -65 -1 -134 -6 -153 -12z m160 -388 l0
-241 -56 4 c-39 3 -62 11 -77 27 -21 20 -22 32 -25 199 -3 191 2 216 48 239
14 7 44 13 68 13 l42 0 0 -241z"/>
<path d="M400 2387 c-49 -16 -133 -102 -148 -153 -8 -28 -12 -126 -12 -298 l0
-256 -95 0 c-88 0 -98 -2 -120 -25 l-25 -24 0 -511 0 -511 25 -24 c22 -23 32
-25 120 -25 l95 0 0 -80 0 -80 -80 0 -80 0 0 -80 0 -80 2080 0 2080 0 0 80 0
80 -720 0 -720 0 0 80 0 80 95 0 c88 0 98 2 120 25 l25 24 0 511 0 511 -25 24
c-22 23 -32 25 -120 25 l-95 0 0 256 c0 169 -4 270 -12 296 -6 22 -31 62 -55
88 -77 86 8 80 -1217 79 -758 -1 -1091 -4 -1116 -12z m2211 -176 l29 -29 0
-251 0 -251 -95 0 c-88 0 -98 -2 -120 -25 -24 -23 -25 -29 -25 -160 l0 -135
-880 0 -880 0 0 135 c0 131 -1 137 -25 160 -22 23 -32 25 -120 25 l-95 0 0
251 0 251 29 29 29 29 1062 0 1062 0 29 -29z m-2131 -1091 l0 -400 -160 0
-160 0 0 400 0 400 160 0 160 0 0 -400z m2400 0 l0 -400 -160 0 -160 0 0 400
0 400 160 0 160 0 0 -400z m-480 0 l0 -80 -880 0 -880 0 0 80 0 80 880 0 880
0 0 -80z m0 -320 l0 -80 -880 0 -880 0 0 80 0 80 880 0 880 0 0 -80z m-1777
-253 c-4 -8 -30 -44 -57 -80 l-50 -67 -58 0 -58 0 0 80 0 80 115 0 c94 0 114
-3 108 -13z m1637 -67 l61 -80 -801 0 -801 0 61 80 61 80 679 0 679 0 61 -80z
m380 0 l0 -80 -58 0 -58 0 -50 67 c-27 36 -53 72 -57 80 -6 10 14 13 108 13
l115 0 0 -80z"/>
<path d="M1040 1800 l0 -360 80 0 80 0 0 360 0 360 -80 0 -80 0 0 -360z"/>
<path d="M1840 1800 l0 -360 80 0 80 0 0 360 0 360 -80 0 -80 0 0 -360z"/>
<path d="M4400 320 l0 -80 80 0 80 0 0 80 0 80 -80 0 -80 0 0 -80z"/>
</g>
</svg>
